<svg xmlns="http://www.w3.org/2000/svg" width="1000" height="520" viewBox="0 0 1000 520">
<rect width="100%" height="100%" fill="#f5f8fc"/>
<text x="100" y="38" font-family="Arial" font-size="25" font-weight="700" fill="#16233a">Locked Final Test: Monthly Returns</text>
<line x1="100" y1="199.6" x2="970" y2="199.6" stroke="#73829a" stroke-width="1.5"/>
<rect x="112.7" y="199.6" width="41.5" height="1.0" fill="#00a88f" rx="3"/>
<text x="133.5" y="465" text-anchor="middle" font-family="Arial" font-size="12" fill="#33445d">2025-07</text>
<text x="133.5" y="192.6" text-anchor="middle" font-family="Arial" font-size="11" fill="#33445d">0.00</text>
<rect x="179.6" y="100.0" width="41.5" height="99.6" fill="#00a88f" rx="3"/>
<text x="200.4" y="465" text-anchor="middle" font-family="Arial" font-size="12" fill="#33445d">2025-08</text>
<text x="200.4" y="93.0" text-anchor="middle" font-family="Arial" font-size="11" fill="#33445d">0.21</text>
<rect x="246.6" y="199.6" width="41.5" height="46.3" fill="#d94f5c" rx="3"/>
<text x="267.3" y="465" text-anchor="middle" font-family="Arial" font-size="12" fill="#33445d">2025-09</text>
<text x="267.3" y="261.9" text-anchor="middle" font-family="Arial" font-size="11" fill="#33445d">-0.10</text>
<rect x="313.5" y="199.6" width="41.5" height="1.0" fill="#00a88f" rx="3"/>
<text x="334.2" y="465" text-anchor="middle" font-family="Arial" font-size="12" fill="#33445d">2025-10</text>
<text x="334.2" y="192.6" text-anchor="middle" font-family="Arial" font-size="11" fill="#33445d">0.00</text>
<rect x="380.4" y="199.6" width="41.5" height="1.0" fill="#00a88f" rx="3"/>
<text x="401.2" y="465" text-anchor="middle" font-family="Arial" font-size="12" fill="#33445d">2025-11</text>
<text x="401.2" y="192.6" text-anchor="middle" font-family="Arial" font-size="11" fill="#33445d">0.00</text>
<rect x="447.3" y="199.6" width="41.5" height="1.0" fill="#00a88f" rx="3"/>
<text x="468.1" y="465" text-anchor="middle" font-family="Arial" font-size="12" fill="#33445d">2025-12</text>
<text x="468.1" y="192.6" text-anchor="middle" font-family="Arial" font-size="11" fill="#33445d">0.00</text>
<rect x="514.3" y="199.6" width="41.5" height="1.0" fill="#00a88f" rx="3"/>
<text x="535.0" y="465" text-anchor="middle" font-family="Arial" font-size="12" fill="#33445d">2026-01</text>
<text x="535.0" y="192.6" text-anchor="middle" font-family="Arial" font-size="11" fill="#33445d">0.00</text>
<rect x="581.2" y="199.6" width="41.5" height="123.3" fill="#d94f5c" rx="3"/>
<text x="601.9" y="465" text-anchor="middle" font-family="Arial" font-size="12" fill="#33445d">2026-02</text>
<text x="601.9" y="338.9" text-anchor="middle" font-family="Arial" font-size="11" fill="#33445d">-0.26</text>
<rect x="648.1" y="199.6" width="41.5" height="200.4" fill="#d94f5c" rx="3"/>
<text x="668.8" y="465" text-anchor="middle" font-family="Arial" font-size="12" fill="#33445d">2026-03</text>
<text x="668.8" y="416.0" text-anchor="middle" font-family="Arial" font-size="11" fill="#33445d">-0.42</text>
<rect x="715.0" y="199.6" width="41.5" height="1.0" fill="#00a88f" rx="3"/>
<text x="735.8" y="465" text-anchor="middle" font-family="Arial" font-size="12" fill="#33445d">2026-04</text>
<text x="735.8" y="192.6" text-anchor="middle" font-family="Arial" font-size="11" fill="#33445d">0.00</text>
<rect x="781.9" y="199.6" width="41.5" height="1.0" fill="#00a88f" rx="3"/>
<text x="802.7" y="465" text-anchor="middle" font-family="Arial" font-size="12" fill="#33445d">2026-05</text>
<text x="802.7" y="192.6" text-anchor="middle" font-family="Arial" font-size="11" fill="#33445d">0.00</text>
<rect x="848.9" y="199.6" width="41.5" height="1.0" fill="#00a88f" rx="3"/>
<text x="869.6" y="465" text-anchor="middle" font-family="Arial" font-size="12" fill="#33445d">2026-06</text>
<text x="869.6" y="192.6" text-anchor="middle" font-family="Arial" font-size="11" fill="#33445d">0.00</text>
<rect x="915.8" y="199.6" width="41.5" height="1.0" fill="#00a88f" rx="3"/>
<text x="936.5" y="465" text-anchor="middle" font-family="Arial" font-size="12" fill="#33445d">2026-07</text>
<text x="936.5" y="192.6" text-anchor="middle" font-family="Arial" font-size="11" fill="#33445d">0.00</text>
<text x="22" y="260.0" transform="rotate(-90 22 260.0)" font-family="Arial" font-size="13" fill="#52627a">Return (%)</text>
</svg>